<?xml version="1.0" standalone="no"?>
<!DOCTYPE svg PUBLIC "-//W3C//DTD SVG 20010904//EN"
 "http://www.w3.org/TR/2001/REC-SVG-20010904/DTD/svg10.dtd">
<svg version="1.0" xmlns="http://www.w3.org/2000/svg"
 width="85.000000pt" height="85.000000pt" viewBox="0 0 85.000000 85.000000"
 preserveAspectRatio="xMidYMid meet">
<metadata>
Created by potrace 1.11, written by Peter Selinger 2001-2013
</metadata>
<g transform="translate(0.000000,85.000000) scale(0.100000,-0.100000)"
fill="#000000" stroke="none">
<path d="M585 761 c-13 -22 -38 -48 -55 -57 -33 -20 -40 -51 -12 -61 22 -9 54
-40 75 -75 10 -16 22 -28 27 -28 5 0 21 18 35 40 14 22 38 46 55 55 38 20 39
50 3 67 -15 7 -40 32 -56 56 -15 23 -32 42 -38 42 -5 0 -20 -18 -34 -39z m93
-81 c14 -1 14 -3 -3 -18 -11 -9 -28 -27 -36 -39 l-16 -23 -33 35 -33 34 34 35
33 36 19 -30 c10 -17 26 -30 35 -30z"/>
<path d="M383 642 c-6 -4 -22 -38 -34 -75 -15 -46 -35 -81 -63 -111 -41 -44
-118 -91 -130 -79 -3 4 -6 1 -6 -5 0 -6 -6 -9 -13 -6 -8 3 -20 -2 -27 -11 -17
-20 -3 -47 26 -51 102 -16 180 -96 229 -237 16 -46 18 -47 39 -34 11 8 21 18
22 23 10 105 103 212 213 245 24 7 45 19 48 26 5 13 -13 43 -25 41 -35 -7
-172 72 -172 100 0 5 -7 12 -15 16 -8 3 -14 9 -13 13 1 4 -6 25 -15 47 -9 21
-17 47 -17 57 0 9 -7 25 -16 33 -18 18 -16 18 -31 8z m67 -180 c6 -2 10 -8 10
-13 0 -22 82 -84 124 -95 23 -6 35 -28 12 -24 -5 1 -12 -3 -15 -8 -3 -6 -13
-12 -21 -14 -33 -7 -99 -73 -125 -123 -11 -22 -24 -43 -28 -46 -5 -3 -8 -9 -7
-13 1 -4 -1 -12 -3 -19 -3 -6 -8 3 -12 20 -4 18 -14 38 -21 44 -8 6 -14 17
-14 23 0 20 -77 91 -124 115 -25 12 -49 27 -52 33 -4 6 -3 8 2 5 19 -11 80 27
136 86 32 33 57 62 56 66 0 3 5 21 12 40 l13 35 24 -55 c13 -30 28 -55 33 -57z"/>
</g>
</svg>
