<?xml version="1.0" standalone="no"?>
<!DOCTYPE svg PUBLIC "-//W3C//DTD SVG 20010904//EN"
 "http://www.w3.org/TR/2001/REC-SVG-20010904/DTD/svg10.dtd">
<svg version="1.0" xmlns="http://www.w3.org/2000/svg"
 width="107.000000pt" height="107.000000pt" viewBox="0 0 107.000000 107.000000"
 preserveAspectRatio="xMidYMid meet">
<metadata>
Created by potrace 1.11, written by Peter Selinger 2001-2013
</metadata>
<g transform="translate(0.000000,107.000000) scale(0.100000,-0.100000)"
fill="#000000" stroke="none">
<path d="M876 852 c-3 -5 -43 -8 -90 -7 -47 1 -83 -2 -80 -6 2 -4 0 -10 -6
-14 -5 -3 -10 -19 -10 -34 0 -23 -25 -113 -47 -171 -4 -8 -7 -17 -8 -20 -1 -3
-7 -18 -14 -35 -7 -16 -15 -43 -18 -60 -2 -16 -7 -37 -11 -45 -3 -8 -6 -17 -7
-20 -15 -57 -18 -53 -66 90 -44 132 -66 210 -73 254 -1 8 -5 19 -9 22 -4 4 -7
15 -7 24 0 15 -15 16 -127 16 -71 0 -131 -5 -135 -10 -3 -5 -1 -28 6 -50 9
-30 12 -112 10 -286 -4 -257 -7 -310 -18 -329 -5 -8 17 -11 80 -11 l86 0 -8
38 c-9 39 -13 422 -4 427 5 3 58 -159 114 -346 35 -117 38 -119 115 -120 51
-1 67 3 77 16 20 26 80 216 100 309 7 36 27 91 37 104 5 6 6 12 1 12 -4 0 -3
5 4 12 7 7 12 20 12 29 0 10 3 20 8 22 15 10 2 -468 -14 -494 -3 -5 35 -9 85
-9 95 0 105 5 90 48 -14 36 -9 551 5 587 19 48 10 65 -34 65 -21 0 -41 -4 -44
-8z"/>
</g>
</svg>
