<?xml version="1.0" standalone="no"?>
<!DOCTYPE svg PUBLIC "-//W3C//DTD SVG 20010904//EN"
 "http://www.w3.org/TR/2001/REC-SVG-20010904/DTD/svg10.dtd">
<svg version="1.0" xmlns="http://www.w3.org/2000/svg"
 width="200.000000pt" height="200.000000pt" viewBox="0 0 200.000000 200.000000"
 preserveAspectRatio="xMidYMid meet">
<metadata>
Created by potrace 1.14, written by Peter Selinger 2001-2017
</metadata>
<g transform="translate(0.000000,200.000000) scale(0.100000,-0.100000)"
fill="#000000" stroke="none">
<path d="M150 1750 c0 -6 -5 -8 -12 -4 -10 6 -10 4 0 -8 8 -10 9 -19 3 -22 -9
-6 -8 -221 3 -598 4 -148 13 -162 117 -173 220 -25 488 -148 653 -299 46 -43
54 -45 50 -8 -2 15 -6 191 -9 392 -3 201 -8 377 -11 390 -3 14 -7 38 -9 53 -2
16 -7 31 -11 35 -4 4 -4 -1 -1 -11 4 -12 3 -16 -4 -11 -6 3 -8 15 -6 26 4 13
-6 31 -28 54 -31 31 -53 46 -41 25 3 -4 -5 -13 -17 -18 -17 -8 -30 -7 -48 3
-13 7 -33 13 -44 14 -13 0 -21 7 -22 20 -2 24 12 27 21 5 4 -12 10 -14 25 -5
29 15 35 12 20 -7 -7 -10 -9 -15 -5 -11 5 4 15 0 23 -10 12 -16 13 -16 7 1 -5
13 -2 16 10 11 9 -3 16 -2 16 4 0 8 -22 19 -55 27 -5 2 -12 4 -15 5 -9 3 -44
11 -60 14 -9 1 -21 5 -27 9 -7 5 -10 1 -8 -10 2 -10 4 -22 4 -26 1 -4 7 -7 15
-5 8 2 14 -1 13 -7 -1 -5 -6 -8 -12 -6 -5 2 -16 4 -22 4 -7 0 -13 6 -13 12 0
7 -10 17 -22 24 l-23 12 23 -5 c15 -3 22 0 19 7 -5 13 -11 13 -41 1 -15 -6
-17 -4 -11 6 5 9 4 11 -4 6 -6 -4 -18 -3 -25 3 -10 9 -15 8 -19 -2 -7 -19 8
-43 17 -28 4 6 12 11 18 11 6 0 6 -6 -2 -15 -22 -27 -99 -4 -100 29 0 5 8 2
18 -7 10 -10 22 -17 27 -17 5 0 0 7 -11 16 -16 13 -16 15 -1 10 9 -3 17 -1 17
4 0 6 -6 10 -12 11 -7 0 -23 2 -35 5 -26 4 -27 1 -13 -27 10 -18 8 -19 -22
-14 -107 18 -147 29 -152 41 -6 16 10 19 19 4 4 -6 11 -7 17 -4 6 4 15 0 20
-7 8 -11 8 -10 4 4 -4 12 -2 17 6 14 7 -2 12 -11 10 -18 -3 -11 -1 -12 9 -1
18 16 34 15 20 -2 -9 -11 -7 -13 11 -12 13 1 26 -3 30 -9 4 -5 6 0 5 13 0 12
-4 22 -7 23 -3 0 -12 2 -20 4 -8 2 -25 6 -38 9 -12 3 -27 8 -34 12 -7 5 -8 3
-4 -5 11 -17 -26 -10 -40 8 -8 10 -13 11 -18 3 -4 -7 -4 -12 1 -12 4 0 -2 -6
-13 -14 -15 -11 -30 -12 -59 -6 -21 5 -41 8 -44 8 -20 -2 -31 3 -26 12 4 6 11
7 17 4 6 -4 14 0 19 7 7 12 9 11 9 -1 0 -13 1 -13 10 0 8 13 10 12 10 -2 0
-10 4 -18 10 -18 5 0 7 7 4 15 -5 11 -1 14 12 9 15 -5 16 -4 5 4 -8 6 -23 9
-33 7 -10 -2 -18 2 -18 8 0 7 -5 4 -11 -6 -6 -9 -15 -15 -21 -11 -7 4 -6 9 2
14 9 5 9 9 1 14 -6 4 -11 2 -11 -4z m140 -70 c0 -5 -4 -10 -10 -10 -5 0 -10 5
-10 10 0 6 5 10 10 10 6 0 10 -4 10 -10z m140 0 c0 -5 -5 -10 -11 -10 -5 0 -7
5 -4 10 3 6 8 10 11 10 2 0 4 -4 4 -10z m196 -54 c10 -8 16 -18 11 -22 -4 -4
-7 -3 -7 3 0 6 -11 9 -25 8 -24 -3 -32 5 -18 18 9 10 17 9 39 -7z m84 9 c0 -7
-30 -13 -34 -7 -3 4 4 9 15 9 10 1 19 0 19 -2z m178 -84 c11 -16 18 -31 15
-34 -9 -9 -33 20 -34 40 0 16 -1 16 -9 -2 -5 -11 -9 -14 -9 -7 -1 7 -5 10 -11
7 -5 -3 -10 -2 -10 4 0 8 14 18 31 20 3 1 15 -12 27 -28z"/>
<path d="M1816 1743 c-4 -4 -19 -9 -34 -10 -63 -5 -85 -17 -77 -42 5 -16 -5
-20 -72 -32 -43 -7 -85 -14 -93 -15 -8 0 -33 -6 -55 -11 -22 -6 -59 -14 -82
-17 -35 -5 -41 -4 -37 9 4 8 11 12 18 8 6 -4 4 2 -4 12 -14 17 -13 18 3 12 10
-4 21 -7 23 -7 3 0 2 -5 -2 -12 -4 -7 -3 -8 5 -4 6 4 8 12 5 18 -5 8 -1 9 10
5 10 -4 22 -7 27 -7 6 0 7 -6 3 -12 -6 -9 -3 -9 9 0 9 8 22 10 28 6 8 -5 9 -3
4 6 -6 10 -4 12 7 7 12 -4 14 -1 10 16 -3 12 -7 16 -10 9 -2 -7 -9 -9 -14 -6
-6 4 -8 2 -5 -3 4 -6 0 -14 -9 -17 -11 -4 -15 -2 -11 7 3 8 -1 14 -9 14 -7 0
-11 -4 -8 -8 2 -4 -13 -6 -33 -4 -28 2 -44 -3 -62 -18 -23 -21 -24 -21 -17 -2
6 16 5 18 -5 8 -7 -7 -17 -13 -22 -13 -4 0 -5 6 -1 13 5 7 1 6 -10 -3 -10 -8
-30 -15 -44 -16 -14 -1 -28 -6 -30 -12 -2 -6 -9 -9 -16 -6 -8 3 -21 -2 -29
-11 -9 -9 -20 -17 -24 -18 -4 -1 -7 -6 -5 -11 2 -5 -4 -6 -12 -3 -7 3 -24 -5
-37 -19 -12 -13 -17 -24 -11 -24 7 0 12 -7 12 -15 0 -8 -5 -15 -11 -15 -5 0
-7 5 -3 12 4 7 3 8 -4 4 -6 -4 -8 -14 -5 -23 5 -12 3 -14 -7 -8 -8 5 -11 3 -8
-6 3 -8 1 -25 -4 -39 -9 -23 -15 -219 -22 -647 -1 -101 -1 -183 1 -183 2 0 36
27 76 61 161 136 356 227 566 264 176 32 170 22 177 337 3 134 6 283 8 331 2
48 -1 90 -6 93 -4 3 -4 13 2 23 9 18 4 31 -12 31 -5 0 -7 -9 -3 -19 4 -13 0
-23 -12 -29 -31 -16 -82 -22 -89 -11 -3 6 -12 8 -20 5 -8 -3 -14 -2 -14 3 0
18 15 20 39 4 25 -16 25 -16 11 2 -14 17 -13 18 5 11 45 -18 51 -19 35 -6 -12
9 -11 10 7 5 12 -3 24 -1 28 5 3 5 1 10 -5 10 -6 0 -8 5 -5 10 7 12 2 13 -9 3z
m-76 -57 c0 -3 -4 -8 -10 -11 -5 -3 -10 -1 -10 4 0 6 5 11 10 11 6 0 10 -2 10
-4z m-382 -61 c-6 -14 -15 -25 -20 -25 -9 0 -4 14 15 38 15 19 18 14 5 -13z
m-28 -6 c0 -11 -12 -17 -42 -23 -15 -2 -35 -9 -45 -14 -10 -5 -24 -7 -30 -5
-7 3 -13 0 -13 -7 0 -6 -5 -8 -10 -5 -6 4 -26 -5 -45 -19 -36 -28 -62 -18 -30
12 10 10 15 11 11 5 -4 -7 -3 -13 2 -13 13 0 33 25 26 33 -3 3 5 4 19 3 18 -2
24 1 20 10 -3 8 0 14 6 14 6 0 11 -4 11 -10 0 -5 5 -10 11 -10 5 0 8 4 4 9 -6
10 11 24 33 27 8 2 11 -3 9 -10 -3 -7 1 -13 9 -13 7 0 11 4 8 9 -3 4 -3 12 0
17 7 11 46 2 46 -10z"/>
<path d="M1235 1611 c-3 -5 -2 -12 3 -15 5 -3 9 1 9 9 0 17 -3 19 -12 6z"/>
<path d="M253 1715 c-7 -8 -9 -16 -4 -19 5 -3 12 1 15 10 8 22 4 25 -11 9z"/>
<path d="M1683 1723 c-15 -5 -17 -23 -4 -23 5 0 11 7 15 15 3 8 4 15 3 14 -1
0 -8 -3 -14 -6z"/>
<path d="M1637 1709 c-9 -6 -14 -15 -11 -21 4 -6 1 -8 -7 -6 -8 3 -13 12 -11
19 2 9 -4 7 -17 -5 -13 -12 -21 -15 -21 -7 0 7 -6 11 -12 9 -7 -3 -13 -11 -13
-19 0 -8 -4 -18 -10 -22 -6 -5 -1 -6 10 -2 11 4 25 8 30 9 6 1 15 4 20 7 6 3
21 5 36 4 20 -1 25 4 25 22 0 13 0 23 0 23 -1 0 -9 -5 -19 -11z m-72 -29 c3
-5 1 -10 -4 -10 -6 0 -11 5 -11 10 0 6 2 10 4 10 3 0 8 -4 11 -10z"/>
<path d="M1862 456 c-1 -75 3 -136 8 -136 5 0 10 24 12 53 l3 52 27 -30 c14
-16 35 -41 46 -55 11 -14 24 -22 28 -18 4 4 -10 28 -31 54 l-38 46 39 39 c47
48 28 52 -23 4 -20 -19 -40 -32 -44 -29 -4 2 -8 34 -8 71 0 36 -4 70 -9 75 -6
6 -10 -41 -10 -126z"/>
<path d="M12 558 c-16 -16 -16 -210 0 -226 14 -14 124 -16 133 -2 3 5 -21 10
-57 12 l-63 3 0 45 0 45 47 0 c26 0 50 4 54 8 6 6 -29 10 -89 10 -15 0 -18 7
-15 46 l3 46 65 5 c36 3 61 8 55 11 -19 11 -121 9 -133 -3z"/>
<path d="M1289 550 c0 -11 -1 -56 -1 -100 0 -144 -6 -130 60 -130 45 0 63 4
76 19 22 24 24 77 4 98 -14 14 -14 17 2 33 20 20 17 53 -8 83 -11 12 -30 17
-74 17 -51 0 -58 -2 -59 -20z m117 -8 c21 -14 25 -45 8 -63 -12 -13 -31 -19
-61 -19 -44 0 -45 1 -45 55 0 8 0 20 1 25 1 11 81 13 97 2z m7 -123 c15 -21
12 -59 -7 -71 -6 -4 -30 -8 -53 -8 -34 0 -43 4 -44 18 0 9 -1 32 -2 50 -2 32
-2 32 45 32 36 0 50 -5 61 -21z"/>
<path d="M180 493 c0 -5 13 -24 29 -43 l29 -34 -30 -44 c-16 -24 -27 -46 -23
-50 4 -4 13 2 21 13 37 56 43 61 54 44 20 -33 48 -64 54 -58 3 3 -7 25 -24 48
l-30 41 22 33 c13 17 27 35 33 39 5 4 6 11 1 15 -4 4 -22 -9 -39 -29 l-32 -38
-24 35 c-22 32 -41 45 -41 28z"/>
<path d="M360 485 c-1 -24 -2 -213 -1 -237 2 -33 21 -18 19 15 -2 67 -2 67 46
61 38 -6 45 -3 60 17 20 30 21 108 0 137 -16 24 -47 28 -88 13 -17 -7 -26 -7
-30 2 -2 7 -5 3 -6 -8z m108 -17 c16 -16 16 -100 0 -116 -13 -13 -67 -16 -83
-4 -16 12 -12 111 5 122 21 14 64 12 78 -2z"/>
<path d="M544 413 c1 -53 5 -87 11 -85 5 1 9 31 8 67 -2 71 1 76 62 86 32 5
36 7 21 14 -11 5 -32 3 -50 -3 -20 -8 -32 -9 -34 -2 -2 5 -7 10 -12 10 -4 0
-7 -39 -6 -87z"/>
<path d="M696 484 c-17 -16 -18 -21 -18 -54 0 -60 4 -80 18 -94 17 -17 76 -20
109 -6 14 6 4 9 -38 9 -50 1 -59 4 -66 24 -12 32 -6 37 48 37 57 0 77 17 66
57 -3 15 -12 31 -18 35 -21 13 -85 8 -101 -8z m99 -24 c10 -30 -2 -40 -50 -40
-50 0 -56 6 -44 38 12 31 84 33 94 2z"/>
<path d="M862 488 c-18 -18 -15 -75 4 -82 9 -3 36 -6 60 -6 44 0 45 -1 42 -27
-3 -26 -7 -28 -55 -31 -69 -4 -69 -22 0 -22 59 0 77 12 77 50 0 38 -18 50 -72
50 -47 0 -48 1 -48 30 0 32 9 35 83 30 15 -1 27 3 27 9 0 15 -103 14 -118 -1z"/>
<path d="M1023 478 c-5 -13 -7 -34 -3 -48 5 -22 12 -26 60 -30 50 -5 55 -7 55
-30 0 -23 -4 -25 -60 -30 -68 -6 -53 -20 20 -20 49 0 68 19 60 60 -6 32 -10
34 -67 40 -37 4 -52 10 -54 21 -4 31 13 43 59 40 25 -1 48 3 52 9 4 6 -14 10
-53 10 -51 0 -60 -3 -69 -22z"/>
<path d="M1496 481 c-13 -14 -18 -36 -18 -73 1 -62 24 -88 78 -88 50 0 74 29
74 90 0 37 -5 55 -20 70 -27 27 -90 27 -114 1z m102 -13 c7 -7 12 -33 12 -58
0 -25 -5 -51 -12 -58 -17 -17 -73 -15 -88 3 -16 19 -15 92 1 111 14 17 70 19
87 2z"/>
<path d="M1685 480 c-11 -13 -18 -36 -18 -71 -1 -42 3 -55 22 -70 28 -22 79
-25 107 -5 28 21 28 131 0 152 -29 21 -89 18 -111 -6z m105 -19 c5 -11 10 -34
10 -51 0 -49 -16 -70 -54 -70 -40 0 -57 17 -60 62 -5 55 11 78 55 78 28 0 41
-5 49 -19z"/>
</g>
</svg>
