<?xml version="1.0" standalone="no"?>
<!DOCTYPE svg PUBLIC "-//W3C//DTD SVG 20010904//EN"
 "http://www.w3.org/TR/2001/REC-SVG-20010904/DTD/svg10.dtd">
<svg version="1.0" xmlns="http://www.w3.org/2000/svg"
 width="197.000000pt" height="197.000000pt" viewBox="0 0 197.000000 197.000000"
 preserveAspectRatio="xMidYMid meet">
<metadata>
Created by potrace 1.11, written by Peter Selinger 2001-2013
</metadata>
<g transform="translate(0.000000,197.000000) scale(0.100000,-0.100000)"
fill="#000000" stroke="none">
<path d="M1643 1378 c-12 -5 -6 -6 15 -4 19 3 36 7 39 10 8 7 -32 3 -54 -6z"/>
<path d="M1576 1361 c-3 -4 6 -6 19 -3 14 2 25 6 25 8 0 8 -39 4 -44 -5z"/>
<path d="M1136 1298 c-11 -19 -13 -77 -12 -298 1 -151 6 -283 10 -292 11 -25
42 -31 74 -15 24 11 34 12 67 0 122 -42 258 54 269 190 11 141 -142 265 -270
217 -15 -6 -29 -8 -32 -6 -3 3 -5 48 -6 99 -1 105 -11 127 -57 127 -19 0 -33
-8 -43 -22z m259 -320 c52 -46 42 -144 -18 -174 -74 -39 -155 30 -136 116 10
46 50 80 94 80 21 0 44 -9 60 -22z"/>
<path d="M1650 1278 c-19 -5 -50 -21 -68 -35 -29 -22 -32 -29 -26 -56 13 -61
12 -314 -2 -373 -12 -54 -12 -57 10 -79 36 -36 112 -53 208 -47 46 3 69 54 84
187 16 147 -6 331 -48 388 -16 22 -103 30 -158 15z m148 -67 c29 -19 50 -295
29 -381 -3 -14 -6 -28 -6 -31 -2 -11 -177 -2 -200 11 -19 10 -21 17 -15 53 7
51 8 240 0 283 -6 32 3 41 74 67 19 7 107 5 118 -2z"/>
<path d="M773 1149 c-170 -31 -268 -202 -202 -349 83 -185 325 -234 464 -95
129 129 79 341 -100 421 -61 27 -107 33 -162 23z m142 -135 c62 -29 86 -121
50 -189 -10 -18 -36 -44 -58 -58 -32 -21 -49 -25 -93 -23 -84 5 -130 46 -137
121 -5 53 15 98 57 130 59 45 114 51 181 19z"/>
<path d="M755 980 c-3 -5 1 -10 9 -10 9 0 16 5 16 10 0 6 -4 10 -9 10 -6 0
-13 -4 -16 -10z"/>
<path d="M746 943 c-2 -10 -8 -43 -11 -74 -7 -57 3 -81 23 -56 15 18 20 139 5
144 -6 2 -14 -4 -17 -14z"/>
<path d="M842 952 c-29 -5 -41 -28 -45 -90 -3 -35 0 -53 8 -56 20 -7 25 4 25
54 0 56 19 80 44 55 9 -9 16 -31 16 -50 0 -45 9 -65 26 -58 10 4 12 17 8 51
-9 74 -33 102 -82 94z"/>
<path d="M99 1092 c-18 -12 -19 -27 -19 -193 0 -166 1 -180 20 -199 33 -33 88
-15 91 30 0 8 2 67 3 130 2 63 4 118 4 121 1 3 13 11 26 17 18 8 28 7 43 -3
16 -12 18 -29 19 -137 1 -68 2 -130 3 -139 2 -24 54 -44 80 -30 27 15 31 33
34 176 2 116 3 120 27 132 20 10 27 9 42 -4 16 -14 18 -34 18 -145 0 -115 2
-130 20 -148 11 -11 24 -20 30 -20 15 0 61 23 58 29 -2 4 -16 33 -33 66 -38
77 -41 167 -7 232 l22 42 -35 27 c-46 35 -118 43 -167 20 -31 -15 -38 -15 -69
-2 -45 19 -183 17 -210 -2z"/>
</g>
</svg>
