<?xml version="1.0" standalone="no"?>
<!DOCTYPE svg PUBLIC "-//W3C//DTD SVG 20010904//EN"
 "http://www.w3.org/TR/2001/REC-SVG-20010904/DTD/svg10.dtd">
<svg version="1.0" xmlns="http://www.w3.org/2000/svg"
 width="200.000000pt" height="200.000000pt" viewBox="0 0 200.000000 200.000000"
 preserveAspectRatio="xMidYMid meet">
<metadata>
Created by potrace 1.11, written by Peter Selinger 2001-2013
</metadata>
<g transform="translate(0.000000,200.000000) scale(0.100000,-0.100000)"
fill="#000000" stroke="none">
<path d="M130 1645 l0 -265 30 0 30 0 2 238 3 237 830 0 830 0 3 -837 2 -838
-265 0 -265 0 0 -25 0 -25 290 0 290 0 0 890 0 890 -890 0 -890 0 0 -265z"/>
<path d="M235 1211 c-73 -18 -105 -54 -105 -119 0 -56 33 -90 115 -121 33 -12
68 -30 78 -38 26 -24 22 -68 -9 -92 -34 -27 -76 -27 -125 1 -37 20 -41 21 -56
5 -16 -15 -15 -18 1 -36 27 -30 81 -44 144 -39 48 4 60 10 89 41 27 31 33 45
33 83 0 58 -31 92 -115 123 -71 27 -95 46 -95 78 0 59 86 86 147 46 19 -12 26
-13 38 -3 23 19 18 38 -12 53 -38 19 -91 26 -128 18z"/>
<path d="M810 1183 c-70 -37 -111 -99 -118 -179 -17 -209 236 -326 384 -178
51 51 67 97 62 179 -7 118 -87 197 -207 203 -57 3 -73 0 -121 -25z m176 -42
c154 -70 125 -294 -42 -326 -159 -29 -263 175 -147 291 53 54 120 66 189 35z"/>
<path d="M140 325 l0 -215 30 0 30 0 0 95 0 94 98 3 c91 3 97 4 100 25 3 22 0
22 -95 25 l-98 3 0 65 0 65 103 3 c101 3 102 3 102 27 l0 25 -135 0 -135 0 0
-215z"/>
<path d="M742 378 c2 -131 7 -169 20 -195 42 -77 145 -104 227 -61 73 38 81
64 81 256 l0 163 -27 -3 -28 -3 -5 -160 c-3 -88 -9 -167 -13 -176 -19 -39 -99
-55 -147 -29 -40 21 -50 68 -50 225 l0 145 -31 0 -31 0 4 -162z"/>
</g>
</svg>
