<?xml version="1.0" standalone="no"?>
<!DOCTYPE svg PUBLIC "-//W3C//DTD SVG 20010904//EN"
 "http://www.w3.org/TR/2001/REC-SVG-20010904/DTD/svg10.dtd">
<svg version="1.0" xmlns="http://www.w3.org/2000/svg"
 width="313.000000pt" height="313.000000pt" viewBox="0 0 313.000000 313.000000"
 preserveAspectRatio="xMidYMid meet">
<metadata>
Created by potrace 1.11, written by Peter Selinger 2001-2013
</metadata>
<g transform="translate(0.000000,313.000000) scale(0.100000,-0.100000)"
fill="#000000" stroke="none">
<path d="M1273 3038 c-80 -13 -126 -51 -150 -124 -7 -20 -11 -340 -11 -955 -1
-867 1 -928 17 -965 25 -53 62 -88 112 -103 29 -9 136 -12 359 -13 294 0 322
2 362 20 51 23 71 44 93 96 14 33 16 102 16 517 l0 479 -28 25 c-37 32 -66 31
-96 -4 l-25 -30 0 -433 c0 -239 -3 -448 -7 -466 -5 -23 -15 -36 -33 -43 -30
-12 -519 -16 -569 -5 -22 5 -34 15 -41 34 -5 16 -9 387 -8 904 l1 877 23 23
22 23 429 0 c236 0 443 -3 460 -7 17 -5 33 -17 37 -30 7 -22 7 -314 4 -1696
-3 -820 -4 -874 -20 -895 l-18 -22 -616 0 c-576 0 -617 1 -633 18 -17 17 -18
92 -23 1375 -3 746 -9 1364 -13 1374 -5 9 -25 19 -44 23 -43 8 -84 -17 -92
-56 -4 -13 -6 -629 -5 -1369 0 -1057 3 -1355 13 -1390 19 -66 75 -116 143
-127 83 -13 1274 -8 1325 6 55 15 97 51 119 103 17 41 18 114 18 1347 1 929
-2 1317 -10 1349 -16 61 -42 93 -99 121 l-49 25 -460 1 c-254 0 -480 -3 -503
-7z"/>
<path d="M1535 681 c-52 -22 -78 -95 -55 -151 14 -33 66 -70 99 -70 66 0 121
54 121 120 0 77 -89 132 -165 101z"/>
</g>
</svg>
